<svg xmlns="http://www.w3.org/2000/svg" width="18" height="18" viewBox="0 0 18 18">
  <path id="global" d="M15.364,2.636A8.941,8.941,0,0,0,9,0H9A9,9,0,0,0,2.636,15.364,9,9,0,0,0,15.364,2.636Zm.588,10.207H13.317a11.845,11.845,0,0,0,.615-3.316h2.994A7.886,7.886,0,0,1,15.952,12.843ZM9,16.867A7.465,7.465,0,0,1,6.277,13.9h5.446A7.465,7.465,0,0,1,9,16.867ZM5.8,12.843a10.722,10.722,0,0,1-.677-3.316h7.754a10.722,10.722,0,0,1-.677,3.316ZM1.072,9.527H4.067a11.845,11.845,0,0,0,.615,3.316H2.048a7.886,7.886,0,0,1-.975-3.316Zm.975-4.37H4.682a11.845,11.845,0,0,0-.615,3.316H1.072a7.886,7.886,0,0,1,.975-3.316ZM9,1.133A7.465,7.465,0,0,1,11.723,4.1H6.277A7.465,7.465,0,0,1,9,1.133Zm3.2,4.024a10.722,10.722,0,0,1,.677,3.316H5.123A10.722,10.722,0,0,1,5.8,5.157Zm4.728,3.316H13.933a11.845,11.845,0,0,0-.615-3.316h2.634A7.886,7.886,0,0,1,16.927,8.473ZM12.9,4.1a9.337,9.337,0,0,0-1.969-2.811A7.964,7.964,0,0,1,15.252,4.1ZM7.073,1.291A9.337,9.337,0,0,0,5.1,4.1H2.748A7.964,7.964,0,0,1,7.073,1.291ZM5.1,13.9a9.337,9.337,0,0,0,1.969,2.811A7.964,7.964,0,0,1,2.748,13.9Zm5.822,2.811A9.338,9.338,0,0,0,12.9,13.9h2.357a7.964,7.964,0,0,1-4.325,2.811Zm0,0" transform="translate(0)" fill="#8a5ea4"/>
</svg>
