<svg xmlns="http://www.w3.org/2000/svg" width="16.844" height="20.399" viewBox="0 0 16.844 20.399">
  <g id="Group_14455" data-name="Group 14455" transform="translate(0 0.004)">
    <path id="Stroke_1" data-name="Stroke 1" d="M14.615,2.375A1.089,1.089,0,0,1,15.344,3.4v6.773a7.781,7.781,0,0,1-1.9,5.1,7.771,7.771,0,0,1-2.2,1.7L7.678,18.9,4.114,16.972a7.767,7.767,0,0,1-2.208-1.7A7.783,7.783,0,0,1,0,10.172V3.4A1.089,1.089,0,0,1,.729,2.375L7.311.062a1.09,1.09,0,0,1,.722,0Z" transform="translate(0.75 0.749)" fill="none" stroke="#8a5ea4" stroke-linecap="round" stroke-linejoin="round" stroke-miterlimit="10" stroke-width="1.5"/>
    <path id="Stroke_3" data-name="Stroke 3" d="M0,2.005,1.892,3.9,5.79,0" transform="translate(5.823 7.913)" fill="none" stroke="#8a5ea4" stroke-linecap="round" stroke-linejoin="round" stroke-miterlimit="10" stroke-width="1.5"/>
  </g>
</svg>
