<svg id="Iconly_Light_Ticket" data-name="Iconly/Light/Ticket" xmlns="http://www.w3.org/2000/svg" width="24" height="24" viewBox="0 0 24 24">
  <g id="Ticket" transform="translate(2 4)">
    <g id="Group" transform="translate(11.35 0.25)">
      <path id="Stroke_1" data-name="Stroke 1" d="M.5,0V2.42" transform="translate(0 0)" fill="none" stroke="#8a5ea4" stroke-linecap="round" stroke-linejoin="round" stroke-miterlimit="10" stroke-width="1.5"/>
      <path id="Stroke_3" data-name="Stroke 3" d="M.5,0V2.024" transform="translate(0 13.51)" fill="none" stroke="#8a5ea4" stroke-linecap="round" stroke-linejoin="round" stroke-miterlimit="10" stroke-width="1.5"/>
      <path id="Stroke_6" data-name="Stroke 6" d="M.5,4.821V0" transform="translate(0 5.253)" fill="none" stroke="#8a5ea4" stroke-linecap="round" stroke-linejoin="round" stroke-miterlimit="10" stroke-width="1.5"/>
    </g>
    <path id="Stroke_7" data-name="Stroke 7" d="M16.7,16A3.277,3.277,0,0,0,20,12.743V10.151a2.15,2.15,0,1,1,0-4.3V3.257A3.277,3.277,0,0,0,16.7,0H3.3A3.277,3.277,0,0,0,0,3.257V5.935A2.09,2.09,0,0,1,2.177,8,2.159,2.159,0,0,1,0,10.151v2.593A3.277,3.277,0,0,0,3.3,16Z" fill="none" stroke="#8a5ea4" stroke-linecap="round" stroke-linejoin="round" stroke-miterlimit="10" stroke-width="1.5"/>
  </g>
</svg>
